# xmcd
#
# Track frame offsets:
#	150
#	15632
#	29731
#	49254
#	63933
#	80664
#	95670
#	109010
#	126214
#	139716
#	158113
#	171236
#
# Disc length: 2487 seconds
#
# Revision: 1
# Processed by: cddbd v1.5.2PL0 Copyright (c) Steve Scherf et al.
# Submitted via: audiograbber 1.83.01
#
DISCID=a309b50c
DTITLE=Stephen Pride - Pride On The Wild Side
DYEAR=2004
DGENRE=Country
TTITLE0=Too Much To Dream 
TTITLE1=In a Broken Heartbeat 
TTITLE2=This Could Tke All Night 
TTITLE3=Perfect Picture
TTITLE4=Do These Two Arms 
TTITLE5=Master of Illusion 
TTITLE6=No Need Knocking 
TTITLE7=She's Not You (
TTITLE8=The Truth Is I Lied 
TTITLE9=It's All Over Town 
TTITLE10=Just Like A Woman 
TTITLE11=Good Thing
EXTD=
EXTT0=
EXTT1=
EXTT2=
EXTT3=
EXTT4=
EXTT5=
EXTT6=
EXTT7=
EXTT8=
EXTT9=
EXTT10=
EXTT11=
PLAYORDER=
